<?xml version="1.0" encoding="UTF-8" standalone="no" ?>
<!DOCTYPE svg PUBLIC "-//W3C//DTD SVG 1.1//EN" "http://www.w3.org/Graphics/SVG/1.1/DTD/svg11.dtd">
<svg xmlns="http://www.w3.org/2000/svg" xmlns:xlink="http://www.w3.org/1999/xlink" version="1.1" width="1080" height="1080" viewBox="0 0 1080 1080" xml:space="preserve">
<desc>Created with Fabric.js 5.2.4</desc>
<defs>
</defs>
<rect x="0" y="0" width="100%" height="100%" fill="transparent"></rect>
<g transform="matrix(1 0 0 1 540 540)" id="7698df9a-4163-44d1-b8c2-df9736fc8fa5"  >
</g>
<g transform="matrix(1 0 0 1 540 540)" id="da6916b1-52d6-40e3-b992-eaae57eb2cec"  >
<rect style="stroke: none; stroke-width: 1; stroke-dasharray: none; stroke-linecap: butt; stroke-dashoffset: 0; stroke-linejoin: miter; stroke-miterlimit: 4; fill: rgb(255,255,255); fill-rule: nonzero; opacity: 1; visibility: hidden;" vector-effect="non-scaling-stroke"  x="-540" y="-540" rx="0" ry="0" width="1080" height="1080" />
</g>
<g transform="matrix(1.29 0 0 1.29 520.82 539.95)"  >
<path style="stroke: none; stroke-width: 1; stroke-dasharray: none; stroke-linecap: butt; stroke-dashoffset: 0; stroke-linejoin: miter; stroke-miterlimit: 4; fill: rgb(255,255,255); fill-rule: nonzero; opacity: 1;" vector-effect="non-scaling-stroke"  transform=" translate(-329.74, -351.98)" d="M 340.61 336.08 C 341.38 336.08 342.05 336.35999999999996 342.59000000000003 336.93 C 343.14000000000004 337.5 343.41 338.19 343.41 339.01 L 343.41 365 C 343.41 365.64 343.24 366.21 342.90000000000003 366.71 C 342.56000000000006 367.21 342.09000000000003 367.54999999999995 341.50000000000006 367.73999999999995 C 341.2300000000001 367.8299999999999 340.88000000000005 367.87999999999994 340.4700000000001 367.87999999999994 C 340.2000000000001 367.87999999999994 339.8500000000001 367.7799999999999 339.4400000000001 367.56999999999994 C 339.0300000000001 367.35999999999996 338.6900000000001 367.12999999999994 338.41000000000014 366.8499999999999 L 321.8700000000001 346.9599999999999 L 321.8700000000001 365 C 321.8700000000001 365.78 321.59000000000015 366.45 321.0200000000001 367.02 C 320.4500000000001 367.59 319.7600000000001 367.87 318.9300000000001 367.87 C 318.15000000000015 367.87 317.48000000000013 367.59000000000003 316.91000000000014 367.02 C 316.34000000000015 366.45 316.0600000000001 365.78 316.0600000000001 365 L 316.0600000000001 339.02 C 316.0600000000001 338.38 316.23000000000013 337.81 316.5700000000001 337.31 C 316.9100000000001 336.81 317.3600000000001 336.44 317.9000000000001 336.22 C 318.2600000000001 336.13000000000005 318.6300000000001 336.08000000000004 318.99000000000007 336.08000000000004 C 319.31000000000006 336.08000000000004 319.6700000000001 336.21000000000004 320.08000000000004 336.46000000000004 C 320.49000000000007 336.71000000000004 320.85 336.95000000000005 321.17 337.18000000000006 L 337.74 357 L 337.74 339.02 C 337.74 338.2 338.02 337.51 338.59000000000003 336.94 C 339.16 336.37 339.83 336.08 340.61 336.08 z" stroke-linecap="round" />
</g>
<g transform="matrix(1.29 0 0 1.29 566.47 539.94)"  >
<path style="stroke: none; stroke-width: 1; stroke-dasharray: none; stroke-linecap: butt; stroke-dashoffset: 0; stroke-linejoin: miter; stroke-miterlimit: 4; fill: rgb(255,255,255); fill-rule: nonzero; opacity: 1;" vector-effect="non-scaling-stroke"  transform=" translate(-365.15, -351.97)" d="M 366.24 367.87 C 365.69 367.87 365.33 367.85 365.15000000000003 367.8 C 363.05 367.71000000000004 361.12000000000006 367.23 359.34000000000003 366.36 C 357.56000000000006 365.49 356.08000000000004 364.33000000000004 354.90000000000003 362.87 C 352.62000000000006 359.95 351.48 356.33 351.48 352 C 351.48 349.81 351.84000000000003 347.75 352.57 345.81 C 353.3 343.87 354.28 342.19 355.51 340.75 C 356.74 339.31 358.19 338.18 359.84999999999997 337.33 C 361.51 336.49 363.28 336.07 365.15 336.07 C 366.88 336.07 368.62 336.49 370.38 337.33 C 372.13 338.16999999999996 373.67 339.26 374.99 340.58 C 376.17 341.99 377.11 343.60999999999996 377.79 345.43 C 378.47 347.25 378.82 349.17 378.82 351.17 C 378.82 351.99 378.55 352.69 378 353.25 C 377.45 353.82 376.79 354.1 376.02 354.1 L 357.08 354.1 C 357.4 355.01000000000005 357.78999999999996 355.94 358.24 356.87 C 358.7 357.8 359.25 358.66 359.91 359.43 C 360.57000000000005 360.21 361.35 360.83 362.23 361.31 C 363.12 361.79 364.13 362.05 365.27000000000004 362.1 L 365.75000000000006 362.1 C 366.39000000000004 362.1 367.2300000000001 362.03000000000003 368.28000000000003 361.89000000000004 C 369.33000000000004 361.75000000000006 370.42 361.30000000000007 371.56 360.52000000000004 C 371.88 360.38000000000005 372.16 360.27000000000004 372.41 360.18000000000006 C 372.66 360.0900000000001 372.92 360.0400000000001 373.20000000000005 360.0400000000001 C 374.25000000000006 360.0400000000001 375.14000000000004 360.61000000000007 375.87000000000006 361.75000000000006 C 376.05000000000007 361.93000000000006 376.14000000000004 362.30000000000007 376.14000000000004 362.84000000000003 C 376.14000000000004 363.34000000000003 375.99000000000007 363.81000000000006 375.70000000000005 364.24 C 375.40000000000003 364.67 375.07000000000005 365.07 374.71000000000004 365.44 C 373.11 366.44 371.54 367.09 369.99 367.39 C 368.45 367.72 367.2 367.87 366.24 367.87 z M 372.94 348.39 C 372.03 346.28999999999996 371.01 344.71999999999997 369.9 343.66999999999996 C 368.78 342.61999999999995 367.27 342.09999999999997 365.34999999999997 342.09999999999997 C 363.53 342.09999999999997 362.03 342.64 360.86999999999995 343.71 C 359.7099999999999 344.78 358.5799999999999 346.34 357.48999999999995 348.39 L 372.94 348.39 z" stroke-linecap="round" />
</g>
<g transform="matrix(1.29 0 0 1.29 614.85 551.11)"  >
<path style="stroke: none; stroke-width: 1; stroke-dasharray: none; stroke-linecap: butt; stroke-dashoffset: 0; stroke-linejoin: miter; stroke-miterlimit: 4; fill: rgb(255,255,255); fill-opacity: 0.85; fill-rule: nonzero; opacity: 1;" vector-effect="non-scaling-stroke"  transform=" translate(-402.67, -360.63)" d="M 389.62 385.17 C 388.84000000000003 385.17 388.18 384.88 387.64 384.32 C 387.09 383.75 386.82 383.08 386.82 382.3 L 386.82 338.96000000000004 C 386.82 338.19000000000005 387.09 337.51000000000005 387.64 336.94000000000005 C 388.19 336.37000000000006 388.84999999999997 336.09000000000003 389.62 336.09000000000003 C 390.26 336.09000000000003 390.87 336.40000000000003 391.47 337.01000000000005 C 392.06 337.63000000000005 392.56 338.39000000000004 392.97 339.30000000000007 C 394.70000000000005 338.30000000000007 396.39000000000004 337.51000000000005 398.03000000000003 336.94000000000005 C 399.67 336.37000000000006 401.22 336.09000000000003 402.68 336.09000000000003 C 404.87 336.09000000000003 406.92 336.51000000000005 408.83 337.35 C 410.74 338.19 412.41999999999996 339.33000000000004 413.84999999999997 340.77000000000004 C 415.28999999999996 342.21000000000004 416.41999999999996 343.89000000000004 417.27 345.83000000000004 C 418.10999999999996 347.77000000000004 418.53 349.83000000000004 418.53 352.02000000000004 C 418.53 354.21000000000004 418.10999999999996 356.27000000000004 417.27 358.21000000000004 C 416.43 360.15000000000003 415.28999999999996 361.83000000000004 413.84999999999997 363.27000000000004 C 412.40999999999997 364.71000000000004 410.73999999999995 365.83000000000004 408.83 366.65000000000003 C 406.91999999999996 367.47 404.87 367.88000000000005 402.68 367.88000000000005 C 401.31 367.88000000000005 399.76 367.56000000000006 398.03000000000003 366.9200000000001 C 396.3 366.2800000000001 394.48 365.4200000000001 392.56 364.32000000000005 L 392.56 382.30000000000007 C 392.56 383.07000000000005 392.27 383.75000000000006 391.71 384.32000000000005 C 391.14 384.88 390.44 385.17 389.62 385.17 z M 402.68 341.89 C 401.27 341.89 399.95 342.15 398.72 342.68 C 397.49 343.2 396.42 343.92 395.51000000000005 344.83 C 394.6 345.74 393.88000000000005 346.81 393.36000000000007 348.03999999999996 C 392.8400000000001 349.27 392.57000000000005 350.59 392.57000000000005 351.99999999999994 C 392.57000000000005 353.40999999999997 392.83000000000004 354.72999999999996 393.36000000000007 355.96999999999997 C 393.88000000000005 357.2 394.6000000000001 358.27 395.51000000000005 359.17999999999995 C 396.4200000000001 360.09 397.49000000000007 360.80999999999995 398.72 361.3299999999999 C 399.95000000000005 361.8499999999999 401.27000000000004 362.11999999999995 402.68 362.11999999999995 C 404.09000000000003 362.11999999999995 405.41 361.85999999999996 406.65000000000003 361.3299999999999 C 407.88000000000005 360.80999999999995 408.95000000000005 360.0899999999999 409.86 359.17999999999995 C 410.77000000000004 358.2699999999999 411.49 357.19999999999993 412.01 355.96999999999997 C 412.53 354.73999999999995 412.8 353.41999999999996 412.8 351.99999999999994 C 412.8 350.5899999999999 412.54 349.2699999999999 412.01 348.03999999999996 C 411.49 346.80999999999995 410.77 345.73999999999995 409.86 344.83 C 408.95 343.91999999999996 407.88 343.2 406.65000000000003 342.68 C 405.41 342.16 404.09 341.89 402.68 341.89 z" stroke-linecap="round" />
</g>
<g transform="matrix(1.29 0 0 1.29 660.34 528.85)"  >
<path style="stroke: none; stroke-width: 1; stroke-dasharray: none; stroke-linecap: butt; stroke-dashoffset: 0; stroke-linejoin: miter; stroke-miterlimit: 4; fill: rgb(255,255,255); fill-rule: nonzero; opacity: 1;" vector-effect="non-scaling-stroke"  transform=" translate(-437.96, -343.37)" d="M 448.62 336.94 C 449.17 337.51 449.44 338.2 449.44 339.02 C 449.44 339.79999999999995 449.17 340.46999999999997 448.62 341.03999999999996 C 448.07 341.60999999999996 447.41 341.89 446.64 341.89 L 440.76 341.89 L 440.76 365 C 440.76 365.78 440.49 366.45 439.94 367.02 C 439.39 367.59 438.73 367.87 437.96 367.87 C 437.18 367.87 436.51 367.59000000000003 435.94 367.02 C 435.37 366.45 435.09 365.78 435.09 365 L 435.09 341.89 L 429.34999999999997 341.89 C 428.57 341.89 427.9 341.61 427.33 341.03999999999996 C 426.76 340.46999999999997 426.47999999999996 339.79999999999995 426.47999999999996 339.02 C 426.47999999999996 338.2 426.75999999999993 337.51 427.33 336.94 C 427.9 336.37 428.57 336.09 429.34999999999997 336.09 L 435.09 336.09 L 435.09 321.72999999999996 C 435.09 320.96 435.36999999999995 320.28 435.94 319.71 C 436.51 319.14 437.18 318.85999999999996 437.96 318.85999999999996 C 438.72999999999996 318.85999999999996 439.4 319.15 439.94 319.71 C 440.49 320.28 440.76 320.95 440.76 321.72999999999996 L 440.76 336.09 L 446.64 336.09 C 447.41 336.08 448.07 336.37 448.62 336.94 z" stroke-linecap="round" />
</g>
<g transform="matrix(1.29 0 0 1.29 701.83 539.94)"  >
<path style="stroke: none; stroke-width: 1; stroke-dasharray: none; stroke-linecap: butt; stroke-dashoffset: 0; stroke-linejoin: miter; stroke-miterlimit: 4; fill: rgb(255,255,255); fill-opacity: 0.85; fill-rule: nonzero; opacity: 1;" vector-effect="non-scaling-stroke"  transform=" translate(-470.14, -351.96)" d="M 470.15 336.08 C 472.34 336.08 474.39 336.5 476.29999999999995 337.34 C 478.21 338.17999999999995 479.88999999999993 339.33 481.31999999999994 340.78999999999996 C 482.75999999999993 342.24999999999994 483.88999999999993 343.95 484.73999999999995 345.87999999999994 C 485.5799999999999 347.81999999999994 485.99999999999994 349.87999999999994 485.99999999999994 352.06999999999994 C 485.99999999999994 354.25999999999993 485.5799999999999 356.30999999999995 484.73999999999995 358.2199999999999 C 483.9 360.12999999999994 482.75999999999993 361.8099999999999 481.31999999999994 363.2399999999999 C 479.87999999999994 364.6799999999999 478.2099999999999 365.7999999999999 476.29999999999995 366.6199999999999 C 474.38999999999993 367.4399999999999 472.34 367.8499999999999 470.15 367.8499999999999 C 467.96 367.8499999999999 465.9 367.4399999999999 463.96 366.6199999999999 C 462.02 365.7999999999999 460.34 364.6699999999999 458.9 363.2399999999999 C 457.46 361.7999999999999 456.34 360.1299999999999 455.52 358.2199999999999 C 454.7 356.3099999999999 454.28999999999996 354.2499999999999 454.28999999999996 352.06999999999994 C 454.28999999999996 349.87999999999994 454.7 347.81999999999994 455.52 345.87999999999994 C 456.34 343.93999999999994 457.46999999999997 342.24999999999994 458.9 340.78999999999996 C 460.34 339.33 462.02 338.17999999999995 463.96 337.34 C 465.9 336.51 467.96 336.08 470.15 336.08 z M 470.15 362.13 C 471.56 362.13 472.88 361.87 474.12 361.34 C 475.35 360.82 476.42 360.09999999999997 477.33 359.19 C 478.24 358.28 478.96 357.21999999999997 479.47999999999996 356.01 C 479.99999999999994 354.8 480.27 353.49 480.27 352.08 C 480.27 350.66999999999996 480.01 349.33 479.47999999999996 348.08 C 478.96 346.83 478.23999999999995 345.75 477.33 344.83 C 476.41999999999996 343.91999999999996 475.34999999999997 343.2 474.12 342.68 C 472.89 342.16 471.57 341.89 470.15 341.89 C 468.73999999999995 341.89 467.41999999999996 342.15 466.19 342.68 C 464.96 343.2 463.89 343.92 462.98 344.83 C 462.07 345.74 461.35 346.82 460.83000000000004 348.08 C 460.31000000000006 349.33 460.04 350.66999999999996 460.04 352.08 C 460.04 353.49 460.3 354.8 460.83000000000004 356.01 C 461.35 357.21999999999997 462.07000000000005 358.28 462.98 359.19 C 463.89000000000004 360.1 464.96000000000004 360.82 466.19 361.34 C 467.42 361.87 468.74 362.13 470.15 362.13 z" stroke-linecap="round" />
</g>
<g transform="matrix(1.29 0 0 1.29 752.69 539.94)"  >
<path style="stroke: none; stroke-width: 1; stroke-dasharray: none; stroke-linecap: butt; stroke-dashoffset: 0; stroke-linejoin: miter; stroke-miterlimit: 4; fill: rgb(255,255,255); fill-rule: nonzero; opacity: 1;" vector-effect="non-scaling-stroke"  transform=" translate(-509.59, -351.96)" d="M 509.6 336.08 C 511.79 336.08 513.84 336.5 515.75 337.34 C 517.66 338.17999999999995 519.34 339.33 520.77 340.78999999999996 C 522.21 342.24999999999994 523.34 343.95 524.1899999999999 345.87999999999994 C 525.03 347.81999999999994 525.4499999999999 349.87999999999994 525.4499999999999 352.06999999999994 C 525.4499999999999 354.25999999999993 525.03 356.30999999999995 524.1899999999999 358.2199999999999 C 523.3499999999999 360.12999999999994 522.2099999999999 361.8099999999999 520.77 363.2399999999999 C 519.3299999999999 364.6799999999999 517.66 365.7999999999999 515.75 366.6199999999999 C 513.84 367.4399999999999 511.79 367.8499999999999 509.6 367.8499999999999 C 507.41 367.8499999999999 505.35 367.4399999999999 503.41 366.6199999999999 C 501.47 365.7999999999999 499.79 364.6699999999999 498.35 363.2399999999999 C 496.91 361.7999999999999 495.79 360.1299999999999 494.97 358.2199999999999 C 494.15000000000003 356.3099999999999 493.74 354.2499999999999 493.74 352.06999999999994 C 493.74 349.87999999999994 494.15000000000003 347.81999999999994 494.97 345.87999999999994 C 495.79 343.93999999999994 496.92 342.24999999999994 498.35 340.78999999999996 C 499.79 339.33 501.47 338.17999999999995 503.41 337.34 C 505.35 336.51 507.41 336.08 509.6 336.08 z M 509.6 362.13 C 511.01000000000005 362.13 512.33 361.87 513.57 361.34 C 514.8000000000001 360.82 515.87 360.09999999999997 516.7800000000001 359.19 C 517.69 358.28 518.4100000000001 357.21999999999997 518.9300000000001 356.01 C 519.45 354.8 519.72 353.49 519.72 352.08 C 519.72 350.66999999999996 519.46 349.33 518.9300000000001 348.08 C 518.4100000000001 346.83 517.69 345.75 516.7800000000001 344.83 C 515.8700000000001 343.91999999999996 514.8000000000001 343.2 513.57 342.68 C 512.34 342.16 511.02000000000004 341.89 509.6 341.89 C 508.19 341.89 506.87 342.15 505.64000000000004 342.68 C 504.41 343.2 503.34000000000003 343.92 502.43000000000006 344.83 C 501.52000000000004 345.74 500.80000000000007 346.82 500.2800000000001 348.08 C 499.7600000000001 349.33 499.49000000000007 350.66999999999996 499.49000000000007 352.08 C 499.49000000000007 353.49 499.75000000000006 354.8 500.2800000000001 356.01 C 500.80000000000007 357.21999999999997 501.5200000000001 358.28 502.43000000000006 359.19 C 503.3400000000001 360.1 504.4100000000001 360.82 505.64000000000004 361.34 C 506.86 361.87 508.18 362.13 509.6 362.13 z" stroke-linecap="round" />
</g>
<g transform="matrix(1.29 0 0 1.29 800.8 539.95)"  >
<path style="stroke: none; stroke-width: 1; stroke-dasharray: none; stroke-linecap: butt; stroke-dashoffset: 0; stroke-linejoin: miter; stroke-miterlimit: 4; fill: rgb(255,255,255); fill-rule: nonzero; opacity: 1;" vector-effect="non-scaling-stroke"  transform=" translate(-546.92, -351.98)" d="M 557.79 336.08 C 558.56 336.08 559.23 336.35999999999996 559.77 336.93 C 560.3199999999999 337.5 560.59 338.19 560.59 339.01 L 560.59 365 C 560.59 365.64 560.4200000000001 366.21 560.08 366.71 C 559.74 367.21 559.2700000000001 367.54999999999995 558.6800000000001 367.73999999999995 C 558.4100000000001 367.8299999999999 558.0600000000001 367.87999999999994 557.6500000000001 367.87999999999994 C 557.3800000000001 367.87999999999994 557.0300000000001 367.7799999999999 556.6200000000001 367.56999999999994 C 556.2100000000002 367.35999999999996 555.8700000000001 367.12999999999994 555.5900000000001 366.8499999999999 L 539.0500000000002 346.9599999999999 L 539.0500000000002 365 C 539.0500000000002 365.78 538.7700000000002 366.45 538.2000000000002 367.02 C 537.6300000000001 367.59 536.9400000000002 367.87 536.1100000000001 367.87 C 535.3300000000002 367.87 534.6600000000001 367.59000000000003 534.0900000000001 367.02 C 533.5200000000001 366.45 533.2400000000001 365.78 533.2400000000001 365 L 533.2400000000001 339.02 C 533.2400000000001 338.38 533.4100000000001 337.81 533.7500000000001 337.31 C 534.0900000000001 336.81 534.5400000000001 336.44 535.0800000000002 336.22 C 535.4400000000002 336.13000000000005 535.8100000000002 336.08000000000004 536.1700000000002 336.08000000000004 C 536.4900000000002 336.08000000000004 536.8500000000001 336.21000000000004 537.2600000000002 336.46000000000004 C 537.6700000000002 336.71000000000004 538.0300000000002 336.95000000000005 538.3500000000003 337.18000000000006 L 554.92 357 L 554.92 339.02 C 554.92 338.2 555.1999999999999 337.51 555.77 336.94 C 556.34 336.37 557.01 336.08 557.79 336.08 z" stroke-linecap="round" />
</g>
<g transform="matrix(1 0 0 1 411.09 545.6)"  >
<path style="stroke: none; stroke-width: 1; stroke-dasharray: none; stroke-linecap: butt; stroke-dashoffset: 0; stroke-linejoin: miter; stroke-miterlimit: 4; fill: rgb(249,237,50); fill-rule: nonzero; opacity: 0.88;" vector-effect="non-scaling-stroke"  transform=" translate(-234.08, -366.26)" d="M 208.16 463.95 L 225.66 366.62 L 177.98 376.4 L 205.73999999999998 273.2 L 206.90999999999997 268.83 C 208.30999999999997 268.65999999999997 209.72999999999996 268.57 211.15999999999997 268.57 L 253.37999999999997 268.57 C 256.28999999999996 268.57 259.15 268.94 261.91999999999996 269.64 L 260.09999999999997 273.46999999999997 L 230.68999999999997 335.17999999999995 L 290.18999999999994 328.79999999999995 L 208.16 463.95 z" stroke-linecap="round" />
</g>
<g transform="matrix(1 0 0 1 423.38 520.98)"  >
<path style="stroke: none; stroke-width: 1; stroke-dasharray: none; stroke-linecap: butt; stroke-dashoffset: 0; stroke-linejoin: miter; stroke-miterlimit: 4; fill: rgb(0,0,0); fill-rule: nonzero; opacity: 1;" vector-effect="non-scaling-stroke"  transform=" translate(-246.38, -341.64)" d="M 291.98 329.3 C 291.28000000000003 328.39 289.98 328.23 289.07 328.93 C 288.15999999999997 329.63 288 330.93 288.7 331.84000000000003 C 297.78999999999996 343.59000000000003 296.2 357.02000000000004 283.83 372.89000000000004 C 280.49 377.17 277.99 382.07000000000005 276.45 387.26000000000005 C 276.28 386.14000000000004 276.11 385.02000000000004 275.94 383.91 C 275.18 378.77000000000004 274.39 373.46000000000004 272.84 368.46000000000004 C 272.81 368.37000000000006 268.83 361.09000000000003 265.46 358.16 C 270.10999999999996 347.15000000000003 270.65999999999997 334.93 266.96999999999997 323.5 L 266.77 322.89 L 268.33 322.89 C 268.9 322.89 269.45 322.65 269.84 322.24 C 270.22999999999996 321.82 270.42999999999995 321.26 270.4 320.69 L 270.26 318.41 C 269.76 310.51000000000005 268.33 302.68 266.01 295.12 C 263.68 287.52 256.77 282.42 248.82999999999998 282.42 L 215.7 282.42 C 207.75 282.42 200.85 287.52000000000004 198.51999999999998 295.12 C 196.2 302.68 194.76999999999998 310.52 194.26999999999998 318.41 L 194.13 320.69 C 194.09 321.26 194.29999999999998 321.82 194.69 322.24 C 195.07999999999998 322.66 195.63 322.89 196.2 322.89 L 197.76 322.89 L 197.56 323.5 C 193.65 335.62 194.51 348.64 199.96 360.15 C 200.06 360.35999999999996 200.19 360.53999999999996 200.34 360.69 C 200.35 360.7 200.36 360.71 200.37 360.71999999999997 C 200.38 360.72999999999996 200.4 360.74999999999994 200.42000000000002 360.76 C 200.49 360.83 200.57000000000002 360.89 200.65 360.95 C 200.67000000000002 360.96 200.68 360.97999999999996 200.70000000000002 360.99 C 200.81000000000003 361.06 200.92000000000002 361.12 201.04000000000002 361.17 C 201.05 361.17 201.05 361.17 201.06000000000003 361.18 C 201.17000000000004 361.23 201.29000000000002 361.26 201.41000000000003 361.29 C 201.43000000000004 361.29 201.45000000000002 361.3 201.47000000000003 361.3 C 201.59000000000003 361.32 201.72000000000003 361.34000000000003 201.85000000000002 361.34000000000003 C 201.89000000000001 361.34000000000003 201.93000000000004 361.33000000000004 201.97000000000003 361.33000000000004 C 202.07000000000002 361.32000000000005 202.17000000000002 361.32000000000005 202.27000000000004 361.30000000000007 C 202.33000000000004 361.2900000000001 202.38000000000005 361.2700000000001 202.44000000000003 361.25000000000006 C 202.52000000000004 361.2200000000001 202.61 361.20000000000005 202.69000000000003 361.1600000000001 C 202.71000000000004 361.1500000000001 202.72000000000003 361.1500000000001 202.74000000000004 361.1400000000001 C 202.79000000000005 361.1200000000001 202.83000000000004 361.0800000000001 202.88000000000002 361.0600000000001 C 202.94000000000003 361.03000000000014 202.99000000000004 361.0000000000001 203.05 360.9600000000001 C 203.11 360.9200000000001 203.17000000000002 360.8700000000001 203.22 360.8200000000001 C 203.25 360.79000000000013 203.29 360.7700000000001 203.32 360.7400000000001 C 203.32999999999998 360.73000000000013 203.34 360.71000000000015 203.35 360.7000000000001 C 203.4 360.6500000000001 203.44 360.5900000000001 203.48999999999998 360.5300000000001 C 203.52999999999997 360.4800000000001 203.57 360.43000000000006 203.6 360.3800000000001 C 203.64 360.3200000000001 203.67 360.2600000000001 203.7 360.2000000000001 C 203.73 360.1400000000001 203.76 360.0800000000001 203.79 360.0200000000001 C 203.81 359.9600000000001 203.82999999999998 359.9100000000001 203.84 359.8500000000001 C 203.86 359.7800000000001 203.88 359.7000000000001 203.9 359.63000000000005 C 203.91 359.58000000000004 203.91 359.53000000000003 203.92000000000002 359.4800000000001 C 203.93 359.4100000000001 203.94000000000003 359.3500000000001 203.94000000000003 359.2800000000001 C 203.94000000000003 359.2600000000001 203.93000000000004 359.24000000000007 203.93000000000004 359.2200000000001 C 203.93000000000004 359.1700000000001 203.92000000000004 359.1300000000001 203.92000000000004 359.0800000000001 C 203.91000000000005 358.9900000000001 203.90000000000003 358.9100000000001 203.88000000000005 358.8200000000001 C 203.87000000000006 358.7700000000001 203.85000000000005 358.73000000000013 203.84000000000006 358.6800000000001 C 203.81000000000006 358.60000000000014 203.79000000000005 358.5100000000001 203.75000000000006 358.4300000000001 C 203.74000000000007 358.42000000000013 203.74000000000007 358.40000000000015 203.74000000000007 358.3900000000001 C 198.74000000000007 347.8400000000001 197.95000000000007 335.9000000000001 201.54000000000008 324.7900000000001 L 202.1500000000001 322.9100000000001 L 208.22000000000008 322.9100000000001 L 222.1500000000001 322.9100000000001 C 223.29000000000008 322.9100000000001 224.22000000000008 321.9800000000001 224.22000000000008 320.8400000000001 C 224.22000000000008 319.7000000000001 223.29000000000008 318.7700000000001 222.1500000000001 318.7700000000001 L 208.22000000000008 318.7700000000001 L 200.64000000000007 318.7700000000001 L 198.44000000000008 318.7700000000001 L 198.45000000000007 318.6900000000001 C 198.93000000000006 311.1200000000001 200.30000000000007 303.6100000000001 202.5300000000001 296.35000000000014 C 204.32000000000008 290.51000000000016 209.6400000000001 286.58000000000015 215.75000000000009 286.58000000000015 L 248.88000000000008 286.58000000000015 C 254.9900000000001 286.58000000000015 260.31000000000006 290.51000000000016 262.1000000000001 296.35000000000014 C 264.3300000000001 303.60000000000014 265.7000000000001 311.1100000000001 266.18000000000006 318.6900000000001 L 266.18000000000006 318.7700000000001 L 263.9800000000001 318.7700000000001 L 256.4000000000001 318.7700000000001 L 237.7100000000001 318.7700000000001 C 236.5700000000001 318.7700000000001 235.6400000000001 319.7000000000001 235.6400000000001 320.8400000000001 L 235.6400000000001 352.9400000000001 C 235.6400000000001 354.0800000000001 236.5700000000001 355.0100000000001 237.7100000000001 355.0100000000001 C 238.85000000000008 355.0100000000001 239.7800000000001 354.0800000000001 239.7800000000001 352.9400000000001 L 239.7800000000001 322.92000000000013 L 256.4000000000001 322.92000000000013 L 262.4700000000001 322.92000000000013 L 263.0800000000001 324.8000000000001 C 266.6600000000001 335.91000000000014 265.8800000000001 347.84000000000015 260.8800000000001 358.3900000000001 C 260.8800000000001 358.3900000000001 260.8800000000001 358.3900000000001 260.8800000000001 358.3900000000001 L 260.8800000000001 358.3900000000001 C 260.3900000000001 359.4200000000001 260.8300000000001 360.6600000000001 261.8600000000001 361.1500000000001 C 262.2000000000001 361.3100000000001 262.5700000000001 361.3700000000001 262.92000000000013 361.3400000000001 C 264.6100000000001 362.9500000000001 268.3000000000001 368.5400000000001 268.96000000000015 369.8300000000001 C 270.39000000000016 374.4900000000001 271.1100000000001 379.3700000000001 271.88000000000017 384.5400000000001 C 272.6100000000002 389.4500000000001 273.3600000000002 394.5200000000001 274.77000000000015 399.37000000000006 C 275.03000000000014 400.26000000000005 275.85000000000014 400.86000000000007 276.76000000000016 400.86000000000007 C 276.85000000000014 400.86000000000007 276.94000000000017 400.8500000000001 277.03000000000014 400.8400000000001 C 278.04000000000013 400.7100000000001 278.8100000000001 399.8500000000001 278.83000000000015 398.8300000000001 C 279.00000000000017 390.4000000000001 281.95000000000016 382.1000000000001 287.13000000000017 375.4600000000001 C 300.61 358.1 302.25 342.58 291.98 329.3 z" stroke-linecap="round" />
</g>
<g transform="matrix(1 0 0 1 409.28 554.28)"  >
<path style="stroke: none; stroke-width: 1; stroke-dasharray: none; stroke-linecap: butt; stroke-dashoffset: 0; stroke-linejoin: miter; stroke-miterlimit: 4; fill: rgb(0,0,0); fill-rule: nonzero; opacity: 1;" vector-effect="non-scaling-stroke"  transform=" translate(-232.27, -374.95)" d="M 232.27 361.74 C 250.55 374.06 251.69 390.58 251.70000000000002 390.74 C 251.75000000000003 391.68 252.42000000000002 392.47 253.35000000000002 392.67 C 253.49 392.7 253.63000000000002 392.71000000000004 253.77 392.71000000000004 C 254.55 392.71000000000004 255.27 392.27000000000004 255.63000000000002 391.56000000000006 C 260.41 381.93000000000006 259.26000000000005 370.20000000000005 252.72000000000003 361.6700000000001 L 249.89000000000001 357.99000000000007 C 249.50000000000003 357.4800000000001 248.89000000000001 357.18000000000006 248.25000000000003 357.18000000000006 L 232.28000000000003 357.18000000000006 L 216.3 357.18000000000006 C 215.66000000000003 357.18000000000006 215.05 357.4800000000001 214.66000000000003 357.99000000000007 L 211.83 361.6700000000001 C 205.28 370.20000000000005 204.14000000000001 381.93000000000006 208.92000000000002 391.56000000000006 C 209.27 392.2800000000001 210.00000000000003 392.71000000000004 210.78000000000003 392.71000000000004 C 210.92000000000002 392.71000000000004 211.06000000000003 392.70000000000005 211.20000000000002 392.67 C 212.12 392.48 212.8 391.69 212.85000000000002 390.74 C 212.85 390.58 213.9 374.12 232.27 361.74 z M 247.23 361.33 L 249.42999999999998 364.2 C 253.51 369.51 255.12999999999997 376.28 254.12999999999997 382.74 C 252.13999999999996 376.91 247.86999999999998 368.72 238.70999999999998 361.33 L 247.23 361.33 z M 210.42 382.74 C 209.42 376.28000000000003 211.04 369.51 215.11999999999998 364.2 L 217.31999999999996 361.33 L 225.83999999999997 361.33 C 216.68 368.72 212.41 376.91 210.42 382.74 z" stroke-linecap="round" />
</g>
<g transform="matrix(1 0 0 1 409.23 540)"  >
<path style="stroke: none; stroke-width: 1; stroke-dasharray: none; stroke-linecap: butt; stroke-dashoffset: 0; stroke-linejoin: miter; stroke-miterlimit: 4; fill: rgb(0,0,0); fill-rule: nonzero; opacity: 1;" vector-effect="non-scaling-stroke"  transform=" translate(-232.22, -371.13)" d="M 228.1 369.06 C 226.96 369.06 226.03 369.99 226.03 371.13 C 226.03 372.27 226.96 373.2 228.1 373.2 L 236.34 373.2 C 237.48 373.2 238.41 372.27 238.41 371.13 C 238.41 369.99 237.48 369.06 236.34 369.06 L 228.1 369.06 z" stroke-linecap="round" />
</g>
<g transform="matrix(1 0 0 1 458.32 525.69)"  >
<path style="stroke: none; stroke-width: 1; stroke-dasharray: none; stroke-linecap: butt; stroke-dashoffset: 0; stroke-linejoin: miter; stroke-miterlimit: 4; fill: rgb(0,0,0); fill-rule: nonzero; opacity: 1;" vector-effect="non-scaling-stroke"  transform=" translate(-281.31, -346.35)" d="M 279.62 365.01 C 279.87 365.11 280.12 365.15 280.37 365.15 C 281.2 365.15 281.98 364.65 282.3 363.83 C 286.66 352.57 289.89 341.57 281.56 330.87 L 279.6 328.35 C 278.90000000000003 327.45000000000005 277.6 327.28000000000003 276.69 327.99 L 276.69 327.99 C 275.79 328.69 275.62 330 276.33 330.90000000000003 C 277.60999999999996 332.55 278.09 333.17 278.28999999999996 333.42 L 278.28999999999996 333.42 C 285.28999999999996 342.42 282.48999999999995 351.84000000000003 278.42999999999995 362.34000000000003 C 278.02 363.39 278.55 364.59 279.62 365.01 z" stroke-linecap="round" />
</g>
<g transform="matrix(1 0 0 1 409.29 476.98)"  >
<path style="stroke: none; stroke-width: 1; stroke-dasharray: none; stroke-linecap: butt; stroke-dashoffset: 0; stroke-linejoin: miter; stroke-miterlimit: 4; fill: rgb(0,0,0); fill-rule: nonzero; opacity: 1;" vector-effect="non-scaling-stroke"  transform=" translate(-232.28, -297.63)" d="M 288.51 326.16 C 288.12 326.51000000000005 287.63 326.68 287.14 326.68 C 286.64 326.68 286.15 326.5 285.76 326.15000000000003 L 275.26 316.71000000000004 C 274.40999999999997 315.94000000000005 274.34 314.64000000000004 275.11 313.78000000000003 C 275.88 312.93 277.18 312.86 278.04 313.63000000000005 L 287.08000000000004 321.77000000000004 C 292.50000000000006 315.85 293.19000000000005 306.86 288.49000000000007 300.15000000000003 L 278.43000000000006 285.76000000000005 C 274.02000000000004 279.46000000000004 267.45000000000005 275.12000000000006 260.11000000000007 273.47 C 257.93000000000006 272.97 255.68000000000006 272.72 253.40000000000006 272.72 L 211.18000000000006 272.72 C 209.34000000000006 272.72 207.53000000000006 272.89000000000004 205.75000000000006 273.21000000000004 C 197.88000000000005 274.63000000000005 190.80000000000007 279.1 186.13000000000005 285.77000000000004 L 176.07000000000005 300.16 C 171.37000000000006 306.87 172.06000000000006 315.86 177.48000000000005 321.78000000000003 L 186.53000000000006 313.64000000000004 C 187.38000000000005 312.87000000000006 188.69000000000005 312.94000000000005 189.45000000000005 313.79 C 190.22000000000006 314.65000000000003 190.15000000000003 315.95000000000005 189.30000000000004 316.72 L 178.81000000000003 326.16 C 178.42000000000004 326.51000000000005 177.92000000000004 326.69 177.42000000000004 326.69 C 176.93000000000004 326.69 176.44000000000005 326.52 176.05000000000004 326.17 C 167.87000000000003 318.94 166.42000000000004 306.73 172.68000000000004 297.78000000000003 L 182.74000000000004 283.39000000000004 C 188.40000000000003 275.29 197.23000000000005 270.03000000000003 206.92000000000004 268.84000000000003 C 208.32000000000005 268.67 209.74000000000004 268.58000000000004 211.17000000000004 268.58000000000004 L 253.39000000000004 268.58000000000004 C 256.30000000000007 268.58000000000004 259.16 268.95000000000005 261.93000000000006 269.65000000000003 C 269.9100000000001 271.67 277.01000000000005 276.50000000000006 281.83000000000004 283.40000000000003 L 291.89000000000004 297.79 C 298.14 306.72 296.69 318.92 288.51 326.16 z" stroke-linecap="round" />
</g>
<g transform="matrix(1 0 0 1 360.73 526.1)"  >
<path style="stroke: none; stroke-width: 1; stroke-dasharray: none; stroke-linecap: butt; stroke-dashoffset: 0; stroke-linejoin: miter; stroke-miterlimit: 4; fill: rgb(18,18,79); fill-rule: nonzero; opacity: 1;" vector-effect="non-scaling-stroke"  transform=" translate(-183.73, -346.76)" d="M 189.48 329.25 C 190.17999999999998 328.35 190.01999999999998 327.04 189.11999999999998 326.34 C 188.21999999999997 325.64 186.90999999999997 325.79999999999995 186.20999999999998 326.7 L 182.98 330.86 C 177.42 338 176 347.69 179.26999999999998 356.13 L 183.20999999999998 366.3 C 183.52999999999997 367.12 184.30999999999997 367.62 185.14 367.62 C 185.39 367.62 185.64 367.57 185.89 367.48 C 186.95999999999998 367.07 187.48999999999998 365.87 187.07 364.8 L 183.13 354.63 C 180.38 347.54 181.57999999999998 339.4 186.25 333.4 L 189.48 329.25 z" stroke-linecap="round" />
</g>
<g transform="matrix(1 0 0 1 414.8 596.5)"  >
<path style="stroke: none; stroke-width: 1; stroke-dasharray: none; stroke-linecap: butt; stroke-dashoffset: 0; stroke-linejoin: miter; stroke-miterlimit: 4; fill: rgb(0,0,0); fill-rule: nonzero; opacity: 1;" vector-effect="non-scaling-stroke"  transform=" translate(-237.79, -417.16)" d="M 253.51 402.46 C 247.95999999999998 398.15 247.92999999999998 393.97999999999996 247.92999999999998 393.75 C 247.96999999999997 392.62 247.08999999999997 391.66 245.95999999999998 391.61 C 244.80999999999997 391.56 243.84999999999997 392.44 243.79 393.58000000000004 C 243.78 393.84000000000003 243.57999999999998 399.98 250.97 405.73 C 254.91 408.79 256.58 413.33000000000004 255.33 417.56 C 253.26000000000002 424.56 248.01000000000002 430.3 242.72000000000003 435.81 C 242.66000000000003 435.4 242.60000000000002 434.97 242.53000000000003 434.51 L 242.47000000000003 434.11 C 241.90000000000003 430.14 240.71000000000004 426.92 238.94000000000003 424.54 C 236.97000000000003 421.90000000000003 234.13000000000002 420.89000000000004 231.62000000000003 419.99 C 230.07000000000002 419.44 228.61000000000004 418.92 227.44000000000003 418.08 C 225.06000000000003 416.37 223.11 414.07 221.81000000000003 411.41999999999996 C 219.38000000000002 406.46999999999997 219.20000000000002 400.31999999999994 221.29000000000002 394.09999999999997 C 221.66000000000003 393.02 221.07000000000002 391.84 219.99 391.46999999999997 C 218.9 391.09999999999997 217.73000000000002 391.69 217.36 392.77 C 214.92000000000002 400.03 215.17000000000002 407.28999999999996 218.09 413.22999999999996 C 219.69 416.48999999999995 222.09 419.33 225.02 421.42999999999995 C 226.67000000000002 422.60999999999996 228.47 423.24999999999994 230.22 423.87999999999994 C 232.45 424.67999999999995 234.38 425.35999999999996 235.60999999999999 426.99999999999994 C 236.95 428.78999999999996 237.89999999999998 431.44999999999993 238.35999999999999 434.67999999999995 L 238.42999999999998 435.11999999999995 C 238.92 438.28 238.93999999999997 439.44999999999993 238.87999999999997 439.88999999999993 C 238.43999999999997 440.69999999999993 238.57999999999996 441.7299999999999 239.27999999999997 442.38999999999993 C 239.67999999999998 442.7699999999999 240.18999999999997 442.9599999999999 240.69999999999996 442.9599999999999 C 241.24999999999997 442.9599999999999 241.79999999999995 442.7399999999999 242.20999999999995 442.30999999999995 C 243.00999999999996 441.4599999999999 243.82999999999996 440.60999999999996 244.65999999999994 439.74999999999994 C 250.34999999999994 433.8399999999999 256.80999999999995 427.1499999999999 259.29999999999995 418.7199999999999 C 261.04 412.83 258.82 406.6 253.51 402.46 z" stroke-linecap="round" />
</g>
<g transform="matrix(1 0 0 1 363.07 562.38)"  >
<path style="stroke: none; stroke-width: 1; stroke-dasharray: none; stroke-linecap: butt; stroke-dashoffset: 0; stroke-linejoin: miter; stroke-miterlimit: 4; fill: rgb(0,0,0); fill-rule: nonzero; opacity: 1;" vector-effect="non-scaling-stroke"  transform=" translate(-186.07, -383.04)" d="M 198.35 371.34 C 198.71 370.25 198.10999999999999 369.08 197.01999999999998 368.72999999999996 C 195.92999999999998 368.36999999999995 194.76 368.96999999999997 194.40999999999997 370.05999999999995 C 191.18999999999997 379.88999999999993 194.67999999999998 389.69999999999993 198.05999999999997 399.19999999999993 C 201.04999999999998 407.60999999999996 203.89999999999998 415.63999999999993 201.94999999999996 423.11999999999995 C 198.79999999999995 415.86999999999995 191.81999999999996 407.78 187.61999999999995 402.91999999999996 C 186.42999999999995 401.54999999999995 185.49999999999994 400.46 184.99999999999994 399.80999999999995 C 177.71999999999994 390.16999999999996 171.66999999999993 379.7699999999999 176.65999999999994 369.00999999999993 C 176.97999999999993 368.31999999999994 176.88999999999993 367.49999999999994 176.42999999999995 366.88999999999993 C 176.29999999999995 366.7199999999999 163.61999999999995 349.63999999999993 173.16999999999996 338.0199999999999 C 173.89999999999995 337.13999999999993 173.76999999999995 335.8299999999999 172.87999999999997 335.0999999999999 C 171.99999999999997 334.3699999999999 170.68999999999997 334.4999999999999 169.95999999999998 335.38999999999993 C 159.7 347.87999999999994 169.52999999999997 364.16999999999996 172.40999999999997 368.38999999999993 C 167.38999999999996 380.74999999999994 174.23999999999998 392.44999999999993 181.68999999999997 402.31999999999994 C 182.26999999999998 403.0799999999999 183.23999999999998 404.2099999999999 184.47999999999996 405.63999999999993 C 189.23999999999995 411.1499999999999 199.12999999999997 422.61999999999995 199.42999999999995 429.4599999999999 C 199.46999999999994 430.36999999999995 200.09999999999994 431.1499999999999 200.97999999999996 431.37999999999994 C 201.14999999999995 431.42999999999995 201.32999999999996 431.44999999999993 201.49999999999997 431.44999999999993 C 202.20999999999998 431.44999999999993 202.87999999999997 431.0899999999999 203.25999999999996 430.4699999999999 C 209.79999999999995 419.8699999999999 205.80999999999997 408.6699999999999 201.95999999999995 397.8299999999999 C 198.68 388.55 195.58 379.82 198.35 371.34 z" stroke-linecap="round" />
</g>
<g transform="matrix(1 0 0 1 390.17 512.36)"  >
<path style="stroke: none; stroke-width: 1; stroke-dasharray: none; stroke-linecap: butt; stroke-dashoffset: 0; stroke-linejoin: miter; stroke-miterlimit: 4; fill: rgb(0,0,0); fill-rule: nonzero; opacity: 1;" vector-effect="non-scaling-stroke"  transform=" translate(-213.16, -333.01)" d="M 223.27 331.4 C 223.73000000000002 330.34999999999997 223.25 329.13 222.20000000000002 328.66999999999996 C 221.15 328.21 219.93 328.68999999999994 219.47000000000003 329.73999999999995 C 218.52000000000004 331.91999999999996 215.84000000000003 333.37999999999994 212.80000000000004 333.37999999999994 C 210.23000000000005 333.37999999999994 207.86000000000004 332.30999999999995 206.62000000000003 330.5899999999999 C 205.95000000000005 329.6599999999999 204.66000000000003 329.44999999999993 203.73000000000005 330.1199999999999 C 202.80000000000004 330.7899999999999 202.59000000000006 332.07999999999987 203.26000000000005 333.0099999999999 C 205.29000000000005 335.83999999999986 208.86000000000004 337.52999999999986 212.81000000000006 337.52999999999986 C 217.46 337.52 221.66 335.06 223.27 331.4 z" stroke-linecap="round" />
</g>
<g transform="matrix(1 0 0 1 428.4 512.35)"  >
<path style="stroke: none; stroke-width: 1; stroke-dasharray: none; stroke-linecap: butt; stroke-dashoffset: 0; stroke-linejoin: miter; stroke-miterlimit: 4; fill: rgb(0,0,0); fill-rule: nonzero; opacity: 1;" vector-effect="non-scaling-stroke"  transform=" translate(-251.39, -333)" d="M 260.82 330.11 C 259.89 329.44 258.59 329.65000000000003 257.93 330.58000000000004 C 256.69 332.30000000000007 254.32 333.37000000000006 251.75 333.37000000000006 C 248.72 333.37000000000006 246.04 331.9100000000001 245.08 329.7300000000001 C 244.62 328.68000000000006 243.4 328.2000000000001 242.35000000000002 328.6700000000001 C 241.3 329.13000000000005 240.82000000000002 330.3500000000001 241.28000000000003 331.4000000000001 C 242.89000000000004 335.0600000000001 247.09000000000003 337.5200000000001 251.74000000000004 337.5200000000001 C 255.68000000000004 337.5200000000001 259.25000000000006 335.8300000000001 261.29 333.0000000000001 C 261.96 332.07 261.75 330.78 260.82 330.11 z" stroke-linecap="round" />
</g>
<g transform="matrix(1 0 0 1 409.29 438.78)"  >
<path style="stroke: none; stroke-width: 1; stroke-dasharray: none; stroke-linecap: butt; stroke-dashoffset: 0; stroke-linejoin: miter; stroke-miterlimit: 4; fill: rgb(0,0,0); fill-rule: nonzero; opacity: 1;" vector-effect="non-scaling-stroke"  transform=" translate(-232.27, -259.44)" d="M 210.67 261.51 L 253.88 261.51 C 255.01999999999998 261.51 255.95 260.58 255.95 259.44 C 255.95 258.3 255.01999999999998 257.37 253.88 257.37 L 210.67 257.37 C 209.53 257.37 208.6 258.3 208.6 259.44 C 208.6 260.58 209.53 261.51 210.67 261.51 z" stroke-linecap="round" />
</g>
<g transform="matrix(0 0 0 0 0 0)"  >
<g style=""   >
</g>
</g>
<g transform="matrix(NaN NaN NaN NaN 0 0)"  >
<g style=""   >
</g>
</g>
</svg>